<?xml version="1.0" encoding="UTF-8" standalone="no"?>
<!-- Created with Inkscape (http://www.inkscape.org/) -->

<svg
   width="200mm"
   height="250mm"
   viewBox="0 0 200 250"
   version="1.1"
   id="svg1"
   xml:space="preserve"
   inkscape:version="1.4 (e7c3feb100, 2024-10-09)"
   sodipodi:docname="cosypolyamory.org.svg"
   xmlns:inkscape="http://www.inkscape.org/namespaces/inkscape"
   xmlns:sodipodi="http://sodipodi.sourceforge.net/DTD/sodipodi-0.dtd"
   xmlns:xlink="http://www.w3.org/1999/xlink"
   xmlns="http://www.w3.org/2000/svg"
   xmlns:svg="http://www.w3.org/2000/svg"><sodipodi:namedview
     id="namedview1"
     pagecolor="#989898"
     bordercolor="#000000"
     borderopacity="0.25"
     inkscape:showpageshadow="2"
     inkscape:pageopacity="0.0"
     inkscape:pagecheckerboard="false"
     inkscape:deskcolor="#d1d1d1"
     inkscape:document-units="mm"
     inkscape:zoom="2"
     inkscape:cx="440.75"
     inkscape:cy="199.5"
     inkscape:window-width="3840"
     inkscape:window-height="1987"
     inkscape:window-x="0"
     inkscape:window-y="35"
     inkscape:window-maximized="1"
     inkscape:current-layer="layer2" /><defs
     id="defs1"><linearGradient
       id="linearGradient4"
       inkscape:collect="always"><stop
         style="stop-color:#000000;stop-opacity:1;"
         offset="0"
         id="stop4" /><stop
         style="stop-color:#000000;stop-opacity:0;"
         offset="1"
         id="stop5" /></linearGradient><linearGradient
       id="linearGradient2"
       inkscape:collect="always"><stop
         style="stop-color:#5d0096;stop-opacity:1;"
         offset="0"
         id="stop2" /><stop
         style="stop-color:#ff7bff;stop-opacity:1;"
         offset="1"
         id="stop3" /></linearGradient><rect
       x="42.576161"
       y="689.32832"
       width="681.21858"
       height="275.73133"
       id="rect2" /><linearGradient
       id="linearGradient11"
       inkscape:collect="always"><stop
         style="stop-color:#000000;stop-opacity:1;"
         offset="0"
         id="stop11" /><stop
         style="stop-color:#9245ff;stop-opacity:1;"
         offset="1"
         id="stop12" /></linearGradient><linearGradient
       id="linearGradient9"
       inkscape:collect="always"><stop
         style="stop-color:#000000;stop-opacity:1;"
         offset="0"
         id="stop9" /><stop
         style="stop-color:#ff00de;stop-opacity:1;"
         offset="1"
         id="stop10" /></linearGradient><linearGradient
       inkscape:collect="always"
       xlink:href="#linearGradient9"
       id="linearGradient10"
       x1="5.6768823"
       y1="132.02058"
       x2="202.04752"
       y2="132.02058"
       gradientUnits="userSpaceOnUse"
       gradientTransform="matrix(0.96755922,0,0,0.96755922,-0.49272014,-82.951971)" /><linearGradient
       inkscape:collect="always"
       xlink:href="#linearGradient11"
       id="linearGradient12"
       x1="5.6768823"
       y1="132.02058"
       x2="202.04752"
       y2="132.02058"
       gradientUnits="userSpaceOnUse"
       gradientTransform="matrix(0.96755922,0,0,0.96755922,-0.49272014,-82.951971)" /><linearGradient
       inkscape:collect="always"
       xlink:href="#linearGradient2"
       id="linearGradient3"
       x1="125.18159"
       y1="751.86625"
       x2="643.4295"
       y2="751.86625"
       gradientUnits="userSpaceOnUse" /><linearGradient
       inkscape:collect="always"
       xlink:href="#linearGradient4"
       id="linearGradient5"
       x1="124.1757"
       y1="751.86625"
       x2="644.4354"
       y2="751.86625"
       gradientUnits="userSpaceOnUse" /></defs><g
     inkscape:groupmode="layer"
     id="layer2"
     inkscape:label="background"
     style="display:inline;opacity:1" /><g
     inkscape:label="heart"
     inkscape:groupmode="layer"
     id="layer1"
     style="display:inline;opacity:1"
     transform="matrix(1.033949,0,0,1.03533,-4.4823203,-37.954297)"><path
       style="display:inline;fill:#5d0096;fill-opacity:1"
       d="M 96.734591,224.71734 C 92.843324,223.89396 89.523994,222.16131 84.299174,218.2262 76.185122,212.11504 65.442312,202.53698 51.360541,188.85882 38.557905,176.42312 30.433797,168.24968 28.404288,165.76315 19.318924,154.63187 12.5942,141.24883 10.070793,129.27721 9.1251635,124.79092 8.8864677,117.91195 9.5385669,113.93899 11.072782,104.59167 16.116608,95.87609 25.290685,86.719794 c 3.838188,-3.830749 10.331229,-9.405346 12.706407,-10.909081 6.515483,-4.124977 12.976986,-5.813147 20.040921,-5.236009 9.560629,0.781122 18.010442,5.005182 27.319495,13.657009 3.982275,3.701124 6.686694,5.697229 9.634632,7.111226 3.9865,1.91215 8.16695,2.481829 11.67488,1.590961 2.25171,-0.571839 6.73634,-2.813073 12.47889,-6.236432 2.73518,-1.630546 5.65123,-3.368841 6.48012,-3.862879 2.40792,-1.435182 8.86556,-4.46233 11.45752,-5.37094 9.39557,-3.293616 17.33384,-2.928421 24.41547,1.123217 7.53762,4.312523 15.59475,13.403595 22.5059,25.393984 2.39865,4.1615 6.24077,11.98569 7.14836,14.55709 2.33444,6.61395 2.37254,13.5732 0.109,19.90789 -2.15325,6.02603 -5.71008,11.31862 -12.96111,19.28622 -7.43034,8.16463 -49.7491,50.14188 -57.62179,57.15679 -5.18779,4.62254 -9.79423,7.66582 -13.89062,9.17694 -1.93392,0.71341 -2.67519,0.84264 -5.29167,0.92254 -1.924821,0.0588 -3.674557,-0.0408 -4.762499,-0.27098 z"
       id="path7"
       inkscape:label="1 outer heart" /><path
       style="display:inline;fill:#a000d7;fill-opacity:1"
       d="m 94.617924,213.20966 c -3.93681,-1.00695 -6.219566,-2.38277 -11.963617,-7.21051 -4.521594,-3.80028 -19.036651,-18.32707 -27.975508,-27.99811 -3.833353,-4.14734 -8.301232,-8.96937 -9.92862,-10.71562 -7.284095,-7.81612 -13.007756,-17.505 -16.397104,-27.75664 -5.576467,-16.86695 -2.717261,-29.19525 9.611416,-41.442427 3.424278,-3.401643 8.155865,-7.335126 11.674267,-9.7051 4.913011,-3.309374 9.697133,-4.852763 15.08125,-4.865309 6.249195,-0.01456 11.455529,1.620424 17.350771,5.448802 2.818913,1.830607 5.097044,3.761581 9.107562,7.719694 4.511167,4.45222 6.934301,6.10884 10.332579,7.06406 4.89223,1.37515 7.15945,0.79435 16.70361,-4.279003 13.17436,-7.003041 19.09239,-8.826084 26.62491,-8.201765 7.9457,0.658566 15.56586,6.791885 22.87025,18.407828 3.56036,5.66193 8.28751,15.71754 9.50054,20.20959 0.86629,3.20801 0.87072,9.22242 0.009,12.26485 -0.89386,3.15598 -3.20803,7.66851 -5.52002,10.76379 -4.21248,5.63962 -19.10069,19.67796 -46.12507,43.49206 -11.92495,10.50837 -14.67651,12.68809 -18.80761,14.89899 -4.21018,2.25322 -8.287251,2.89247 -12.148636,1.90482 z"
       id="path6"
       inkscape:label="2 outer heart" /><path
       style="display:inline;opacity:1;fill:#be00f4;fill-opacity:1"
       d="m 99.460634,206.82783 c -1.525152,-0.30134 -4.036603,-1.34327 -5.801589,-2.40692 -5.765058,-3.47426 -17.889536,-13.75204 -34.556473,-29.29312 -6.330352,-5.90274 -8.518018,-8.26474 -11.306976,-12.208 -6.595498,-9.32527 -10.05892,-18.53825 -10.062023,-26.76579 -0.0022,-5.94593 1.702879,-10.86824 5.75932,-16.62587 2.086796,-2.96196 9.250639,-10.26066 12.290937,-12.5223 6.041786,-4.49443 13.227214,-5.64998 20.577844,-3.30931 3.864043,1.23043 8.569855,4.08872 12.567709,7.63359 4.235703,3.75576 7.649286,5.50086 11.241917,5.7471 3.39437,0.23266 5.08404,-0.44525 11.83849,-4.74973 9.25486,-5.89794 13.71057,-7.846 19.22991,-8.40743 3.45056,-0.35099 5.62586,0.041 8.88656,1.60147 6.93981,3.32112 14.42739,12.17677 20.46526,24.20451 2.0715,4.12654 2.65583,6.37969 2.63877,10.17501 -0.0163,3.63915 -0.58974,6.06172 -2.22875,9.41657 -2.81892,5.76994 -8.38393,12.17518 -31.3552,36.08933 -10.6913,11.13013 -16.05411,16.39776 -18.37828,18.05207 -4.22467,3.00706 -8.07638,4.106 -11.807426,3.36882 z"
       id="path5"
       inkscape:label="3 outer heart" /><path
       style="display:inline;fill:#dc2dff;fill-opacity:1"
       d="M 99.512716,196.41457 C 96.004052,195.29902 90.270374,191.37914 79.404383,182.6673 73.466031,177.90621 64.036146,169.94971 61.987198,167.97149 55.536297,161.74325 50.294832,152.82558 48.676454,145.325 c -0.586162,-2.71665 -0.51458,-7.18935 0.156674,-9.78958 0.636774,-2.46667 2.153764,-5.76152 3.7405,-8.12423 2.587798,-3.85333 8.15594,-9.68245 11.098915,-11.61911 3.108976,-2.04591 7.016732,-3.0565 10.807217,-2.79488 4.840553,0.3341 9.052419,2.13934 14.45286,6.19462 1.893551,1.42189 4.33419,2.99521 5.423643,3.49627 1.7237,0.79274 2.25562,0.91215 4.097804,0.91987 1.914793,0.008 2.306503,-0.0844 4.101353,-0.9677 1.09141,-0.53712 3.59172,-2.12206 5.55625,-3.52211 7.50713,-5.35005 11.55828,-7.20535 16.28177,-7.45654 3.76317,-0.20013 6.13783,0.55409 10.04427,3.1902 4.46739,3.01462 10.91083,11.12073 14.45841,18.18923 2.76507,5.50937 2.35447,11.7077 -1.16193,17.54027 -2.6367,4.37344 -9.02201,12.12519 -24.65579,29.93209 -10.0205,11.41336 -13.74377,14.85991 -17.14372,15.86959 -1.62565,0.48276 -4.95144,0.49912 -6.421964,0.0316 z"
       id="path4"
       inkscape:label="4 inner heart" /><path
       style="display:inline;fill:#fc51ff;fill-opacity:1"
       d="m 94.104604,186.3217 c -3.267139,-1.52081 -8.242192,-6.46005 -19.707335,-19.56545 -4.659371,-5.32596 -6.216842,-7.51787 -8.084036,-11.37708 -2.310319,-4.77509 -3.226802,-8.31387 -3.220559,-12.43542 0.0047,-3.13209 0.552827,-5.32399 1.960813,-7.8417 1.659083,-2.96672 5.185621,-6.50357 9.208573,-9.2355 4.199212,-2.85163 8.158302,-3.52525 12.314617,-2.09527 2.966087,1.02048 4.648434,2.16149 8.095916,5.49084 5.737677,5.54107 6.816587,5.71421 14.100537,2.2628 6.50906,-3.08423 7.54744,-3.39784 11.25036,-3.39784 2.90441,0 3.1307,0.0406 4.79504,0.85994 2.03367,1.00117 4.8791,3.82138 6.69401,6.63466 2.53016,3.922 4.97934,9.52708 5.4832,12.54861 0.6009,3.60348 -0.67071,7.33217 -3.74391,10.97805 -3.19982,3.7961 -25.84476,23.09313 -30.56411,26.0454 -3.003489,1.87889 -6.096653,2.28538 -8.583116,1.12796 z"
       id="path3"
       inkscape:label="5 inner heart" /><path
       id="path2"
       style="display:inline;opacity:1;mix-blend-mode:normal;fill:#ff7bff;fill-opacity:1"
       inkscape:label="6 inner heart"
       d="m 87.619975,131.56665 c 2.228406,0 2.532717,0.068 4.375443,0.97875 2.009943,0.99337 3.193254,2.08242 6.839893,6.29367 1.587599,1.83339 2.999899,2.63477 4.658629,2.64377 0.60587,0.003 2.78565,-0.57749 5.01933,-1.33687 7.19273,-2.44526 10.35112,-2.2256 13.4891,0.93741 2.32927,2.34782 4.25843,6.31123 5.60638,11.51764 1.50905,5.82873 -0.1695,8.98524 -7.59489,14.28182 -5.4447,3.88374 -18.68454,12.57464 -20.700025,13.5878 -2.396823,1.20486 -4.646921,1.50485 -6.415629,0.85524 -2.125365,-0.78061 -6.742809,-6.34918 -14.136088,-17.04754 -3.235581,-4.68199 -4.602076,-7.30399 -5.741252,-11.01741 -0.649669,-2.11778 -0.731704,-2.80353 -0.745174,-6.22908 l -0.01499,-3.84938 0.992187,-2.00866 c 1.629968,-3.29931 5.130524,-6.33986 9.94668,-8.63978 1.869858,-0.89292 2.209587,-0.96738 4.420402,-0.96738 z"
       sodipodi:nodetypes="sssccssssssscccsss" /></g><path
     style="display:inline;opacity:1;fill:url(#linearGradient12);fill-rule:nonzero;stroke:url(#linearGradient10);stroke-width:0.96756;stroke-opacity:1"
     d="M 33.515736,83.824986 C 27.661851,82.479972 22.106406,79.258307 17.255381,74.395391 9.607171,66.728325 5.4836302,56.828587 5.4837799,46.134313 5.4839394,34.582345 9.8248617,24.781749 18.352071,17.081228 24.079512,11.909081 30.938585,8.4277586 38.662735,6.7725838 42.311757,5.9906579 50.110108,5.8030312 53.998406,6.4036361 68.51776,8.6463698 80.387832,15.346422 96.830669,30.580543 l 2.898907,2.685728 0.684344,-0.881216 c 3.33303,-4.292127 10.5143,-11.580479 14.3902,-14.604626 6.97759,-5.444108 14.04838,-8.7920636 21.94602,-10.3910511 2.8148,-0.5698972 3.94549,-0.6627124 8.2535,-0.6774683 4.2588,-0.01443 5.38694,0.067701 7.68005,0.5603202 14.0705,3.0225942 23.64572,11.6857682 26.64099,24.1035432 0.74264,3.078681 0.81989,9.025668 0.15541,11.961624 -1.84036,8.131595 -6.64871,14.90605 -13.50447,19.026503 -2.09663,1.260125 -5.39464,2.662966 -5.88014,2.501085 -0.14895,-0.05011 0.46428,-0.630383 1.36307,-1.290328 3.46085,-2.541094 6.83062,-6.675156 8.74863,-10.732918 3.42495,-7.245765 3.46629,-14.757227 0.11669,-21.210026 -3.24232,-6.246079 -9.93134,-10.793039 -17.91838,-12.180118 -3.71531,-0.645189 -8.95574,-0.40013 -12.77798,0.597611 -3.60775,0.941691 -5.54132,1.716669 -8.1252,3.256336 -6.14868,3.663821 -11.73303,8.881718 -18.89012,17.650585 l -2.28238,2.796195 3.19289,3.055773 c 11.05191,10.577007 19.7362,16.867748 28.02484,20.300613 3.14678,1.303286 5.28918,1.842317 9.30177,2.340519 2.92695,0.363285 3.86023,0.379623 6.54531,0.113245 11.02925,-1.094034 19.79588,-6.854046 24.74769,-16.259949 2.6297,-4.995372 3.69782,-9.842059 3.4781,-15.782808 -0.4831,-13.05477 -7.59902,-24.257773 -19.69693,-31.0092886 l -1.84787,-1.0312746 1.10074,0.1533609 c 0.60541,0.084404 2.21817,0.5106561 3.58399,0.9473349 12.6579,4.0470584 22.58036,15.9901024 25.27982,30.4278864 0.55209,2.952808 0.63216,9.411794 0.1539,12.416044 -1.37933,8.66533 -4.94237,15.5715 -11.29249,21.888018 -5.85333,5.822299 -13.16803,9.74112 -21.59997,11.572308 -2.27259,0.493538 -3.38031,0.565815 -8.74612,0.570876 -5.74142,0.008 -6.35813,-0.04032 -9.41233,-0.695071 -9.07986,-1.947002 -17.37455,-5.760614 -26.10974,-12.004391 -5.88,-4.20293 -10.58765,-8.362945 -20.920082,-18.486504 C 80.862343,37.326336 75.670233,32.769373 68.459467,27.998512 64.516545,25.389676 58.925922,22.569733 55.388356,21.405447 51.331405,20.070109 44.411495,19.644935 39.880728,20.452725 28.38225,22.502604 19.487866,30.077418 15.871677,40.899989 c -1.20112,3.594567 -1.553484,5.932596 -1.535399,10.18773 0.01824,4.333343 0.408109,6.593905 1.93361,11.216812 2.912231,8.825173 9.5554,16.572543 17.846256,20.812545 1.582355,0.809175 1.803232,0.989902 1.184237,0.969028 -0.418506,-0.01521 -1.221724,-0.131418 -1.784923,-0.261049 z m 16.256,-1.01569 C 43.305812,81.979337 36.866635,79.348552 31.614576,75.390967 25.757858,70.977826 21.5023,63.854298 20.315263,56.476827 c -0.350512,-2.17851 -0.342951,-6.859007 0.01481,-9.101049 1.56572,-9.81482 8.936036,-18.823509 18.119881,-22.147784 0.883363,-0.319728 1.661002,-0.526469 1.728062,-0.459331 0.06702,0.06761 -0.50162,0.551415 -1.263764,1.076264 -1.930998,1.329911 -5.792837,5.391173 -7.210874,7.583294 -1.529322,2.364012 -2.728619,4.97516 -3.595966,7.829054 -0.622741,2.049038 -0.694647,2.690936 -0.714036,6.374474 -0.01861,3.553302 0.05636,4.365018 0.566426,6.126537 1.851452,6.393757 6.675384,11.738605 13.083624,14.496383 7.961179,3.426085 17.978247,3.050071 26.008391,-0.976195 4.889474,-2.451599 12.969639,-9.442155 17.792006,-15.392936 0.915192,-1.129278 1.780274,-2.058754 1.922395,-2.065554 0.142121,-0.008 2.55151,2.283038 5.354159,5.088297 l 5.095866,5.10061 -0.446178,0.680877 C 95.945267,61.94857 88.581557,69.157746 85.867817,71.363259 78.00357,77.754832 69.945759,81.429929 61.013202,82.69963 58.16412,83.104435 52.502438,83.159692 49.771816,82.809396 Z"
     id="path8"
     inkscape:label="infinite" /><path
     style="font-size:64px;font-family:'Baloo Tammudu';-inkscape-font-specification:'Baloo Tammudu, Normal';text-align:center;text-anchor:middle;white-space:pre;fill:url(#linearGradient5);stroke:url(#linearGradient3);stroke-width:3.01179"
     d="m 147.37759,700.31425 q -4.928,0 -7.552,3.008 -2.624,3.008 -2.624,8.512 0,5.568 2.88,8.576 2.944,3.008 7.872,3.008 2.624,0 4.416,-0.704 1.856,-0.704 3.52,-1.6 1.088,0.896 1.664,2.176 0.64,1.216 0.64,2.88 0,2.624 -2.944,4.48 -2.88,1.792 -8.832,1.792 -4.288,0 -8.064,-1.216 -3.776,-1.216 -6.592,-3.712 -2.816,-2.56 -4.48,-6.4 -1.6,-3.904 -1.6,-9.28 0,-4.992 1.536,-8.768 1.6,-3.84 4.288,-6.464 2.752,-2.624 6.4,-3.968 3.648,-1.344 7.808,-1.344 5.888,0 9.088,1.92 3.264,1.92 3.264,4.928 0,1.664 -0.832,2.88 -0.832,1.216 -1.92,1.92 -1.664,-1.088 -3.584,-1.856 -1.856,-0.768 -4.352,-0.768 z m 14.20793,11.52 q 0,-4.992 1.536,-8.832 1.6,-3.84 4.288,-6.4 2.752,-2.624 6.4,-3.968 3.712,-1.344 8,-1.344 4.288,0 7.936,1.344 3.712,1.344 6.464,3.968 2.752,2.56 4.288,6.4 1.6,3.84 1.6,8.832 0,4.992 -1.536,8.896 -1.536,3.84 -4.288,6.464 -2.688,2.56 -6.4,3.904 -3.712,1.344 -8.064,1.344 -4.352,0 -8.064,-1.344 -3.712,-1.408 -6.4,-4.032 -2.688,-2.624 -4.224,-6.464 -1.536,-3.84 -1.536,-8.768 z m 11.52,0 q 0,5.824 2.368,8.704 2.368,2.88 6.336,2.88 4.032,0 6.4,-2.88 2.368,-2.88 2.368,-8.704 0,-5.76 -2.368,-8.64 -2.304,-2.88 -6.336,-2.88 -3.968,0 -6.4,2.88 -2.368,2.816 -2.368,8.64 z m 46.39994,4.032 q -2.816,-0.96 -5.12,-1.92 -2.304,-1.024 -3.968,-2.432 -1.664,-1.408 -2.624,-3.328 -0.896,-1.984 -0.896,-4.8 0,-5.44 4.16,-8.704 4.224,-3.264 11.776,-3.264 2.752,0 5.12,0.384 2.368,0.384 4.032,1.216 1.728,0.768 2.688,2.048 0.96,1.216 0.96,2.88 0,1.664 -0.768,2.88 -0.768,1.152 -1.856,1.984 -1.408,-0.896 -3.776,-1.536 -2.368,-0.704 -5.184,-0.704 -2.88,0 -4.224,0.832 -1.344,0.768 -1.344,1.984 0,0.96 0.832,1.6 0.832,0.576 2.496,1.088 l 3.392,1.088 q 6.016,1.92 9.216,4.928 3.264,2.944 3.264,8.064 0,5.44 -4.288,8.832 -4.288,3.328 -12.608,3.328 -2.944,0 -5.504,-0.512 -2.496,-0.448 -4.416,-1.344 -1.856,-0.96 -2.944,-2.304 -1.024,-1.408 -1.024,-3.2 0,-1.856 1.088,-3.136 1.088,-1.344 2.368,-2.048 1.792,1.408 4.352,2.432 2.624,1.024 5.696,1.024 3.136,0 4.416,-0.96 1.28,-0.96 1.28,-2.24 0,-1.28 -1.024,-1.92 -1.024,-0.704 -2.88,-1.344 z m 43.32801,15.168 q -0.704,0.192 -2.176,0.384 -1.472,0.192 -2.88,0.192 -2.944,0 -4.416,-0.96 -1.472,-1.024 -1.472,-4.224 v -8.64 q -1.6,-2.368 -3.456,-5.248 -1.856,-2.88 -3.648,-5.888 -1.792,-3.008 -3.328,-5.888 -1.536,-2.944 -2.496,-5.376 0.832,-1.152 2.24,-2.112 1.472,-0.96 3.584,-0.96 2.496,0 4.032,1.024 1.6,1.024 3.008,3.84 l 5.312,10.688 h 0.384 q 0.896,-1.984 1.536,-3.584 0.704,-1.664 1.344,-3.264 0.64,-1.664 1.344,-3.392 0.704,-1.792 1.6,-4.096 1.152,-0.576 2.56,-0.896 1.408,-0.32 2.688,-0.32 2.24,0 3.776,1.216 1.6,1.152 1.6,3.52 0,0.768 -0.32,1.856 -0.32,1.088 -1.472,3.328 -1.152,2.176 -3.392,5.952 -2.176,3.776 -5.952,9.856 z m 43.71201,-20.544 q 2.688,0 4.096,-1.216 1.472,-1.28 1.472,-3.84 0,-2.432 -1.536,-3.712 -1.472,-1.344 -4.352,-1.344 -1.024,0 -1.728,0.064 -0.64,0 -1.344,0.128 v 9.92 z m -3.328,20.544 q -0.704,0.192 -2.24,0.384 -1.472,0.192 -2.944,0.192 -1.472,0 -2.624,-0.256 -1.088,-0.192 -1.856,-0.768 -0.768,-0.576 -1.152,-1.6 -0.384,-1.024 -0.384,-2.688 v -30.144 q 0,-1.344 0.704,-2.048 0.768,-0.768 2.048,-1.216 2.176,-0.768 4.928,-1.088 2.816,-0.384 5.632,-0.384 8.832,0 13.504,3.776 4.672,3.776 4.672,10.24 0,3.136 -1.024,5.696 -0.96,2.496 -2.944,4.352 -1.92,1.792 -4.928,2.816 -2.944,0.96 -6.848,0.96 h -4.544 z m 24.06396,-19.2 q 0,-4.992 1.536,-8.832 1.6,-3.84 4.288,-6.4 2.752,-2.624 6.4,-3.968 3.712,-1.344 8,-1.344 4.288,0 7.936,1.344 3.712,1.344 6.464,3.968 2.752,2.56 4.288,6.4 1.6,3.84 1.6,8.832 0,4.992 -1.536,8.896 -1.536,3.84 -4.288,6.464 -2.688,2.56 -6.4,3.904 -3.712,1.344 -8.064,1.344 -4.352,0 -8.064,-1.344 -3.712,-1.408 -6.4,-4.032 -2.688,-2.624 -4.224,-6.464 -1.536,-3.84 -1.536,-8.768 z m 11.52,0 q 0,5.824 2.368,8.704 2.368,2.88 6.336,2.88 4.032,0 6.4,-2.88 2.368,-2.88 2.368,-8.704 0,-5.76 -2.368,-8.64 -2.304,-2.88 -6.336,-2.88 -3.968,0 -6.4,2.88 -2.368,2.816 -2.368,8.64 z m 41.34395,19.648 q -2.752,0 -4.352,-1.6 -1.6,-1.6 -1.6,-4.352 v -33.088 q 0.704,-0.128 2.24,-0.32 1.536,-0.256 2.944,-0.256 1.472,0 2.56,0.256 1.152,0.192 1.92,0.768 0.768,0.576 1.152,1.6 0.384,1.024 0.384,2.688 v 25.28 h 14.656 q 0.448,0.704 0.832,1.92 0.384,1.152 0.384,2.432 0,2.56 -1.088,3.648 -1.088,1.024 -2.88,1.024 z m 42.94406,-0.448 q -0.704,0.192 -2.176,0.384 -1.472,0.192 -2.88,0.192 -2.944,0 -4.416,-0.96 -1.472,-1.024 -1.472,-4.224 v -8.64 q -1.6,-2.368 -3.456,-5.248 -1.856,-2.88 -3.648,-5.888 -1.792,-3.008 -3.328,-5.888 -1.536,-2.944 -2.496,-5.376 0.832,-1.152 2.24,-2.112 1.472,-0.96 3.584,-0.96 2.496,0 4.032,1.024 1.6,1.024 3.008,3.84 l 5.312,10.688 h 0.384 q 0.896,-1.984 1.536,-3.584 0.704,-1.664 1.344,-3.264 0.64,-1.664 1.344,-3.392 0.704,-1.792 1.6,-4.096 1.152,-0.576 2.56,-0.896 1.408,-0.32 2.688,-0.32 2.24,0 3.776,1.216 1.6,1.152 1.6,3.52 0,0.768 -0.32,1.856 -0.32,1.088 -1.472,3.328 -1.152,2.176 -3.392,5.952 -2.176,3.776 -5.952,9.856 z m 22.39998,-37.376 q 1.088,-0.64 3.264,-1.216 2.24,-0.576 4.48,-0.576 3.2,0 5.632,0.96 2.496,0.896 3.2,2.88 1.152,3.328 2.496,7.744 1.344,4.416 2.688,9.152 1.344,4.672 2.624,9.28 1.28,4.544 2.24,8.064 -0.768,0.896 -2.304,1.408 -1.536,0.576 -3.648,0.576 -1.536,0 -2.624,-0.256 -1.024,-0.256 -1.728,-0.768 -0.64,-0.512 -1.088,-1.344 -0.384,-0.832 -0.704,-1.92 l -1.152,-4.416 h -11.584 q -0.512,1.92 -1.024,3.968 -0.512,2.048 -1.024,3.968 -0.896,0.32 -1.92,0.512 -0.96,0.256 -2.368,0.256 -3.264,0 -4.864,-1.088 -1.536,-1.152 -1.536,-3.136 0,-0.896 0.256,-1.792 0.256,-0.896 0.576,-2.112 0.448,-1.728 1.216,-4.288 0.832,-2.56 1.792,-5.504 0.96,-3.008 2.048,-6.144 1.088,-3.136 2.048,-5.888 0.96,-2.816 1.728,-4.992 0.832,-2.176 1.28,-3.328 z m 7.68,8.256 q -0.896,2.688 -2.048,6.016 -1.088,3.264 -1.984,6.656 h 7.936 q -0.896,-3.456 -1.856,-6.72 -0.896,-3.328 -1.664,-5.952 z m 51.00805,19.84 q -0.832,0.704 -2.176,1.152 -1.28,0.384 -3.008,0.384 -2.304,0 -3.84,-0.576 -1.472,-0.576 -1.92,-1.984 -1.792,-5.632 -2.944,-9.088 -1.152,-3.52 -1.792,-6.144 h -0.32 q -0.192,3.776 -0.32,6.912 -0.064,3.072 -0.128,6.016 0,2.944 -0.128,5.952 -0.064,3.008 -0.256,6.656 -0.832,0.32 -2.176,0.512 -1.344,0.256 -2.688,0.256 -2.816,0 -4.416,-0.896 -1.536,-0.896 -1.536,-3.264 l 1.856,-32.64 q 0.512,-0.832 2.24,-1.792 1.728,-0.96 4.864,-0.96 3.392,0 5.312,1.088 1.92,1.024 2.816,3.392 0.576,1.536 1.216,3.52 0.704,1.984 1.344,4.096 0.704,2.112 1.344,4.224 0.64,2.048 1.152,3.712 h 0.32 q 1.536,-5.376 3.072,-10.368 1.536,-5.056 2.816,-8.448 0.96,-0.512 2.432,-0.832 1.536,-0.384 3.392,-0.384 3.136,0 5.12,0.96 1.984,0.896 2.304,2.624 0.256,1.28 0.512,3.968 0.32,2.624 0.64,5.952 0.32,3.328 0.64,7.04 0.32,3.712 0.576,7.168 0.32,3.392 0.512,6.272 0.192,2.816 0.256,4.352 -1.088,0.64 -2.304,0.896 -1.152,0.32 -3.008,0.32 -2.432,0 -4.096,-0.832 -1.664,-0.832 -1.792,-3.264 -0.384,-6.976 -0.512,-12.544 -0.064,-5.568 -0.256,-9.344 h -0.32 q -0.64,2.496 -1.856,6.272 -1.216,3.776 -2.944,9.664 z m 21.95211,-9.92 q 0,-4.992 1.536,-8.832 1.6,-3.84 4.288,-6.4 2.752,-2.624 6.4,-3.968 3.712,-1.344 8,-1.344 4.288,0 7.936,1.344 3.712,1.344 6.464,3.968 2.752,2.56 4.288,6.4 1.6,3.84 1.6,8.832 0,4.992 -1.536,8.896 -1.536,3.84 -4.288,6.464 -2.688,2.56 -6.4,3.904 -3.712,1.344 -8.064,1.344 -4.352,0 -8.064,-1.344 -3.712,-1.408 -6.4,-4.032 -2.688,-2.624 -4.224,-6.464 -1.536,-3.84 -1.536,-8.768 z m 11.52,0 q 0,5.824 2.368,8.704 2.368,2.88 6.336,2.88 4.032,0 6.4,-2.88 2.368,-2.88 2.368,-8.704 0,-5.76 -2.368,-8.64 -2.304,-2.88 -6.336,-2.88 -3.968,0 -6.4,2.88 -2.368,2.816 -2.368,8.64 z m 46.52794,6.912 v 12.288 q -0.704,0.192 -2.24,0.384 -1.472,0.192 -2.944,0.192 -1.472,0 -2.624,-0.256 -1.088,-0.192 -1.856,-0.768 -0.704,-0.576 -1.088,-1.6 -0.384,-1.024 -0.384,-2.688 v -30.144 q 0,-1.344 0.704,-2.048 0.768,-0.768 2.048,-1.216 2.176,-0.768 5.056,-1.088 2.88,-0.384 6.144,-0.384 8.832,0 13.312,3.712 4.48,3.712 4.48,10.048 0,3.968 -2.048,6.784 -2.048,2.816 -4.864,4.352 2.304,3.136 4.544,5.888 2.24,2.752 3.52,4.992 -0.64,2.24 -2.368,3.456 -1.664,1.152 -3.776,1.152 -1.408,0 -2.432,-0.32 -1.024,-0.32 -1.792,-0.896 -0.768,-0.576 -1.408,-1.408 -0.64,-0.832 -1.216,-1.792 l -5.376,-8.64 z m 4.032,-8.512 q 2.432,0 3.84,-1.216 1.408,-1.28 1.408,-3.712 0,-2.432 -1.6,-3.648 -1.536,-1.28 -4.928,-1.28 -0.96,0 -1.536,0.064 -0.576,0.064 -1.28,0.192 v 9.6 z m 42.49601,20.8 q -0.704,0.192 -2.176,0.384 -1.472,0.192 -2.88,0.192 -2.944,0 -4.416,-0.96 -1.472,-1.024 -1.472,-4.224 v -8.64 q -1.6,-2.368 -3.456,-5.248 -1.856,-2.88 -3.648,-5.888 -1.792,-3.008 -3.328,-5.888 -1.536,-2.944 -2.496,-5.376 0.832,-1.152 2.24,-2.112 1.472,-0.96 3.584,-0.96 2.496,0 4.032,1.024 1.6,1.024 3.008,3.84 l 5.312,10.688 h 0.384 q 0.896,-1.984 1.536,-3.584 0.704,-1.664 1.344,-3.264 0.64,-1.664 1.344,-3.392 0.704,-1.792 1.6,-4.096 1.152,-0.576 2.56,-0.896 1.408,-0.32 2.688,-0.32 2.24,0 3.776,1.216 1.6,1.152 1.6,3.52 0,0.768 -0.32,1.856 -0.32,1.088 -1.472,3.328 -1.152,2.176 -3.392,5.952 -2.176,3.776 -5.952,9.856 z m -404.54395,49.28 q -4.928,0 -7.552,3.008 -2.624,3.008 -2.624,8.512 0,5.568 2.88,8.576 2.944,3.008 7.872,3.008 2.624,0 4.416,-0.704 1.856,-0.704 3.52,-1.6 1.088,0.896 1.664,2.176 0.64,1.216 0.64,2.88 0,2.624 -2.944,4.48 -2.88,1.792 -8.832,1.792 -4.288,0 -8.064,-1.216 -3.776,-1.216 -6.592,-3.712 -2.816,-2.56 -4.48,-6.4 -1.6,-3.904 -1.6,-9.28 0,-4.992 1.536,-8.768 1.6,-3.84 4.288,-6.464 2.752,-2.624 6.4,-3.968 3.648,-1.344 7.808,-1.344 5.888,0 9.088,1.92 3.264,1.92 3.264,4.928 0,1.664 -0.832,2.88 -0.832,1.216 -1.92,1.92 -1.664,-1.088 -3.584,-1.856 -1.856,-0.768 -4.352,-0.768 z m 14.20793,11.52 q 0,-4.992 1.536,-8.832 1.6,-3.84 4.288,-6.4 2.752,-2.624 6.4,-3.968 3.712,-1.344 8,-1.344 4.288,0 7.936,1.344 3.712,1.344 6.464,3.968 2.752,2.56 4.288,6.4 1.6,3.84 1.6,8.832 0,4.992 -1.536,8.896 -1.536,3.84 -4.288,6.464 -2.688,2.56 -6.4,3.904 -3.712,1.344 -8.064,1.344 -4.352,0 -8.064,-1.344 -3.712,-1.408 -6.4,-4.032 -2.688,-2.624 -4.224,-6.464 -1.536,-3.84 -1.536,-8.768 z m 11.52,0 q 0,5.824 2.368,8.704 2.368,2.88 6.336,2.88 4.032,0 6.4,-2.88 2.368,-2.88 2.368,-8.704 0,-5.76 -2.368,-8.64 -2.304,-2.88 -6.336,-2.88 -3.968,0 -6.4,2.88 -2.368,2.816 -2.368,8.64 z m 62.01592,9.92 q -0.832,0.704 -2.176,1.152 -1.28,0.384 -3.008,0.384 -2.304,0 -3.84,-0.576 -1.472,-0.576 -1.92,-1.984 -1.792,-5.632 -2.944,-9.088 -1.152,-3.52 -1.792,-6.144 h -0.32 q -0.192,3.776 -0.32,6.912 -0.064,3.072 -0.128,6.016 0,2.944 -0.128,5.952 -0.064,3.008 -0.256,6.656 -0.832,0.32 -2.176,0.512 -1.344,0.256 -2.688,0.256 -2.816,0 -4.416,-0.896 -1.536,-0.896 -1.536,-3.264 l 1.856,-32.64 q 0.512,-0.832 2.24,-1.792 1.728,-0.96 4.864,-0.96 3.392,0 5.312,1.088 1.92,1.024 2.816,3.392 0.576,1.536 1.216,3.52 0.704,1.984 1.344,4.096 0.704,2.112 1.344,4.224 0.64,2.048 1.152,3.712 h 0.32 q 1.536,-5.376 3.072,-10.368 1.536,-5.056 2.816,-8.448 0.96,-0.512 2.432,-0.832 1.536,-0.384 3.392,-0.384 3.136,0 5.12,0.96 1.984,0.896 2.304,2.624 0.256,1.28 0.512,3.968 0.32,2.624 0.64,5.952 0.32,3.328 0.64,7.04 0.32,3.712 0.576,7.168 0.32,3.392 0.512,6.272 0.192,2.816 0.256,4.352 -1.088,0.64 -2.304,0.896 -1.152,0.32 -3.008,0.32 -2.432,0 -4.096,-0.832 -1.664,-0.832 -1.792,-3.264 -0.384,-6.976 -0.512,-12.544 -0.064,-5.568 -0.256,-9.344 h -0.32 q -0.64,2.496 -1.856,6.272 -1.216,3.776 -2.944,9.664 z m 51.00806,0 q -0.832,0.704 -2.176,1.152 -1.28,0.384 -3.008,0.384 -2.304,0 -3.84,-0.576 -1.472,-0.576 -1.92,-1.984 -1.792,-5.632 -2.944,-9.088 -1.152,-3.52 -1.792,-6.144 h -0.32 q -0.192,3.776 -0.32,6.912 -0.064,3.072 -0.128,6.016 0,2.944 -0.128,5.952 -0.064,3.008 -0.256,6.656 -0.832,0.32 -2.176,0.512 -1.344,0.256 -2.688,0.256 -2.816,0 -4.416,-0.896 -1.536,-0.896 -1.536,-3.264 l 1.856,-32.64 q 0.512,-0.832 2.24,-1.792 1.728,-0.96 4.864,-0.96 3.392,0 5.312,1.088 1.92,1.024 2.816,3.392 0.576,1.536 1.216,3.52 0.704,1.984 1.344,4.096 0.704,2.112 1.344,4.224 0.64,2.048 1.152,3.712 h 0.32 q 1.536,-5.376 3.072,-10.368 1.536,-5.056 2.816,-8.448 0.96,-0.512 2.432,-0.832 1.536,-0.384 3.392,-0.384 3.136,0 5.12,0.96 1.984,0.896 2.304,2.624 0.256,1.28 0.512,3.968 0.32,2.624 0.64,5.952 0.32,3.328 0.64,7.04 0.32,3.712 0.576,7.168 0.32,3.392 0.512,6.272 0.192,2.816 0.256,4.352 -1.088,0.64 -2.304,0.896 -1.152,0.32 -3.008,0.32 -2.432,0 -4.096,-0.832 -1.664,-0.832 -1.792,-3.264 -0.384,-6.976 -0.512,-12.544 -0.064,-5.568 -0.256,-9.344 h -0.32 q -0.64,2.496 -1.856,6.272 -1.216,3.776 -2.944,9.664 z m 58.56006,-4.8 q 0,3.456 -1.216,6.336 -1.152,2.816 -3.392,4.864 -2.24,1.984 -5.44,3.072 -3.2,1.088 -7.232,1.088 -4.032,0 -7.232,-1.088 -3.2,-1.088 -5.44,-3.072 -2.24,-2.048 -3.456,-4.864 -1.152,-2.88 -1.152,-6.336 v -24.448 q 0.704,-0.128 2.24,-0.32 1.536,-0.256 2.944,-0.256 1.472,0 2.56,0.256 1.152,0.192 1.92,0.768 0.768,0.576 1.152,1.6 0.384,1.024 0.384,2.688 v 19.52 q 0,3.072 1.664,4.8 1.728,1.728 4.416,1.728 2.752,0 4.416,-1.728 1.664,-1.728 1.664,-4.8 v -24.256 q 0.704,-0.128 2.24,-0.32 1.536,-0.256 2.944,-0.256 1.472,0 2.56,0.256 1.152,0.192 1.92,0.768 0.768,0.576 1.152,1.6 0.384,1.024 0.384,2.688 z m 43.26397,12.992 q -0.896,0.896 -2.624,1.344 -1.664,0.512 -4.032,0.512 -2.368,0 -4.48,-0.704 -2.112,-0.704 -3.456,-3.392 l -6.336,-12.928 q -0.96,-1.984 -1.728,-3.712 -0.768,-1.792 -1.664,-4.096 l -0.384,0.064 q 0.256,3.456 0.256,7.04 0.064,3.584 0.064,7.04 v 9.92 q -0.704,0.192 -2.176,0.384 -1.408,0.192 -2.816,0.192 -1.408,0 -2.496,-0.192 -1.088,-0.192 -1.792,-0.768 -0.704,-0.576 -1.088,-1.536 -0.384,-1.024 -0.384,-2.624 v -32 q 0.896,-1.28 2.752,-1.92 1.856,-0.64 3.968,-0.64 2.368,0 4.48,0.768 2.176,0.704 3.456,3.328 l 6.4,12.928 q 0.96,1.984 1.728,3.776 0.768,1.728 1.664,4.032 l 0.32,-0.064 q -0.256,-3.456 -0.32,-6.912 -0.064,-3.456 -0.064,-6.912 v -10.368 q 0.704,-0.192 2.112,-0.384 1.472,-0.192 2.88,-0.192 2.816,0 4.288,1.024 1.472,0.96 1.472,4.096 z m 19.52005,1.088 q -0.704,0.192 -2.24,0.384 -1.472,0.192 -2.944,0.192 -1.472,0 -2.624,-0.256 -1.088,-0.192 -1.856,-0.768 -0.768,-0.576 -1.152,-1.6 -0.384,-1.024 -0.384,-2.688 v -33.792 q 0.704,-0.128 2.24,-0.32 1.536,-0.256 2.944,-0.256 1.472,0 2.56,0.256 1.152,0.192 1.92,0.768 0.768,0.576 1.152,1.6 0.384,1.024 0.384,2.688 z m 6.52802,-29.568 q -0.448,-0.704 -0.832,-1.92 -0.384,-1.216 -0.384,-2.56 0,-2.496 1.088,-3.584 1.152,-1.088 2.944,-1.088 h 27.904 q 0.448,0.704 0.832,1.92 0.384,1.216 0.384,2.56 0,2.496 -1.152,3.584 -1.088,1.088 -2.88,1.088 h -7.104 v 29.568 q -0.704,0.192 -2.24,0.384 -1.472,0.192 -2.944,0.192 -1.472,0 -2.624,-0.256 -1.088,-0.192 -1.856,-0.768 -0.768,-0.576 -1.152,-1.6 -0.384,-1.024 -0.384,-2.688 v -24.832 z m 59.13595,29.568 q -0.704,0.192 -2.176,0.384 -1.472,0.192 -2.88,0.192 -2.944,0 -4.416,-0.96 -1.472,-1.024 -1.472,-4.224 v -8.64 q -1.6,-2.368 -3.456,-5.248 -1.856,-2.88 -3.648,-5.888 -1.792,-3.008 -3.328,-5.888 -1.536,-2.944 -2.496,-5.376 0.832,-1.152 2.24,-2.112 1.472,-0.96 3.584,-0.96 2.496,0 4.032,1.024 1.6,1.024 3.008,3.84 l 5.312,10.688 h 0.384 q 0.896,-1.984 1.536,-3.584 0.704,-1.664 1.344,-3.264 0.64,-1.664 1.344,-3.392 0.704,-1.792 1.6,-4.096 1.152,-0.576 2.56,-0.896 1.408,-0.32 2.688,-0.32 2.24,0 3.776,1.216 1.6,1.152 1.6,3.52 0,0.768 -0.32,1.856 -0.32,1.088 -1.472,3.328 -1.152,2.176 -3.392,5.952 -2.176,3.776 -5.952,9.856 z"
     id="text1"
     inkscape:label="text"
     transform="matrix(0.34735369,0,0,0.31738007,-33.489945,-19.235689)"
     aria-label="COSY POLYAMORY COMMUNITY" /></svg>
